# xmcd
#
# Track frame offsets: 
#        150
#        15375
#        30930
#        44308
#        56397
#        66922
#        79124
#        92373
#        103460
#        117256
#        131410
#        144058
#        158255
#
# Disc length: 2270 seconds
#
# Revision: 0
# Processed by: cddbd v1.5.2PL0 Copyright (c) Steve Scherf et al.
# Submitted via: ExactAudioCopy v0.99pb4
#
DISCID=9108dc0d
DTITLE=Various Artist - Pedro Infante - a 90 años de su nacimiento
DYEAR=2008
DGENRE=latin
TTITLE0=Me dices que te vas - Miguel Rado
TTITLE1=Sobre las olas - Juventino Rosas
TTITLE2=Fiesta Mexicana - Ernesto Cortazar y Manuel Esperón
TTITLE3=Mi Cariñito - Manuel Esperón y Pedro de Urdimalas
TTITLE4=La traidora - Jose Alfredo Jimenez
TTITLE5=Con el tiempo y un ganchito - Genaro Núñez
TTITLE6=Cuarto vidas - Justo Carreras
TTITLE7=Yo no fui - Consuelo Velazquez
TTITLE8=Peso sobre peso - Salvador Flores
TTITLE9=Flor sin retoño - Ruben Fuentes Gasson
TTITLE10=Que murmuren - Rafael Cardenas y Ruben Fuentes
TTITLE11=Te enamorado - Jose Alfredo Jimenez
TTITLE12=Di que no 2 - Ruben Fuentes y Alberto Cervantes
EXTD=
EXTT0=
EXTT1=
EXTT2=
EXTT3=
EXTT4=
EXTT5=
EXTT6=
EXTT7=
EXTT8=
EXTT9=
EXTT10=
EXTT11=
EXTT12=
PLAYORDER=
